<?xml version="1.0" encoding="utf-8"?>
<!-- Generator: Adobe Illustrator 25.0.1, SVG Export Plug-In . SVG Version: 6.00 Build 0)  -->
<svg version="1.1" id="Layer_1" xmlns="http://www.w3.org/2000/svg" xmlns:xlink="http://www.w3.org/1999/xlink" x="0px" y="0px"
	 viewBox="0 0 245 82" style="enable-background:new 0 0 245 82;" xml:space="preserve">
<style type="text/css">
	.st0{display:none;}
	.st1{display:inline;stroke:#FFFFFF;stroke-miterlimit:10;}
	.st2{display:inline;}
	.st3{fill:#FFFFFF;}
	.st4{fill:none;}
</style>
<g id="Layer_1_3_">
	<g id="Layer_2_2_" class="st0">
		<rect x="-39" y="-32" class="st1" width="527" height="160"/>
	</g>
	<g id="Layer_1_2_">
		<g id="Layer_2_3_" class="st0">
			<rect x="-7.3" y="-3" class="st2" width="447.1" height="93.9"/>
			<text transform="matrix(1 0 0 1 257.6895 67.8662)" class="st2" style="font-family:'ArialMT'; font-size:12px;">Lorem ipsum</text>
		</g>
		<g id="Layer_1_1_">
			<desc>Created with Sketch.</desc>
			<g id="Page-1_1_">
				<g id="empower_x5B_2_x5D__1_" transform="translate(-1.021369, -3.000000)">
					<polygon id="Path_15_" class="st3" points="21.5,72.9 2.7,72.8 2.8,40.2 21.6,40.3 21.6,46 9.7,46 9.7,53.1 20.7,53.1 
						20.7,58.8 9.7,58.8 9.7,67.2 21.6,67.2 					"/>
					<path id="Path_14_" class="st3" d="M42.1,72.9l-7.8-25.6h-0.2c0.3,5.2,0.4,8.7,0.4,10.4v15.2h-6.2l0.1-32.6h9.4l7.6,24.9h0.1
						l8.3-24.9h9.4L63.1,73h-6.4l0.1-15.4c0-0.7,0-1.6,0-2.5c0-1,0.1-3.5,0.3-7.6h-0.2L48.4,73L42.1,72.9z"/>
					<path id="Shape_5_" class="st3" d="M93.9,50.7c0,3.5-1.1,6.2-3.3,8s-5.3,2.8-9.4,2.8h-3V73h-6.9l0.1-32.6h10.4
						c3.9,0,7,0.9,9,2.6C92.8,44.7,93.9,47.3,93.9,50.7z M78.3,55.8h2.3c1.7,0.1,3.4-0.3,4.8-1.2c1.1-0.9,1.7-2.3,1.6-3.7
						c0.1-1.3-0.4-2.7-1.3-3.6c-1.2-0.9-2.7-1.3-4.2-1.2h-3.1L78.3,55.8z"/>
					<path id="Shape_4_" class="st3" d="M129.6,56.9c0,5.4-1.4,9.5-4.1,12.4s-6.6,4.3-11.6,4.3s-8.8-1.5-11.5-4.4s-4-7.1-4-12.5
						s1.4-9.6,4.1-12.4c2.7-2.8,6.6-4.3,11.6-4.3s8.8,1.5,11.5,4.4S129.6,51.5,129.6,56.9z M105.8,56.8c0,3.6,0.7,6.4,2,8.2
						c1.5,1.9,3.8,2.9,6.2,2.8c5.5,0,8.3-3.7,8.3-11s-2.7-11-8.2-11c-2.4-0.1-4.7,0.9-6.1,2.8C106.6,50.4,105.8,53.2,105.8,56.8z"/>
					<path id="Path_13_" class="st3" d="M168.1,73.3h-7.9l-4.4-17.1c-0.2-0.6-0.4-1.9-0.8-3.8s-0.6-3.2-0.7-3.8
						c-0.1,0.8-0.3,2.1-0.7,3.9s-0.7,3-0.8,3.8l-4.5,17.1h-7.8l-8.2-32.6h6.8l4.1,17.8c0.7,3.3,1.2,6.1,1.6,8.5
						c0.1-0.9,0.3-2.2,0.6-3.9c0.3-1.8,0.6-3.2,0.9-4.1l4.8-18.2h6.5l4.7,18.3c0.2,0.8,0.5,2.1,0.8,3.7s0.5,3.1,0.7,4.3
						c0.1-1.2,0.4-2.6,0.7-4.3s0.6-3.1,0.9-4.2l4.2-17.8h6.8L168.1,73.3z"/>
					<polygon id="Path_12_" class="st3" points="199.2,73.4 180.4,73.4 180.6,40.8 199.3,40.9 199.3,46.5 187.5,46.5 187.5,53.7 
						198.5,53.7 198.5,59.3 187.5,59.3 187.5,67.8 199.3,67.8 					"/>
					<path id="Shape_3_" class="st3" d="M213,61v12.5h-6.9l0.1-32.6h9.5c4.4,0,7.7,0.8,9.8,2.5c2.1,1.6,3.2,4.1,3.2,7.4
						c0,1.8-0.5,3.6-1.6,5.1c-1.1,1.6-2.7,2.8-4.5,3.5c4.9,7.3,8.1,12.1,9.5,14.2h-7.7L216.6,61H213z M213,55.4h2.2
						c1.7,0.1,3.4-0.2,4.8-1.1c1.1-0.8,1.7-2.1,1.6-3.4c0.1-1.3-0.5-2.6-1.6-3.3c-1.5-0.8-3.2-1.1-4.9-1H213V55.4z"/>
					<path id="Path_11_" class="st3" d="M38.8,16.8c-0.6-0.6-1.3-1-2-1.3C36,15.2,35.2,15,34.4,15c-1.7,0-3.2,0.6-4.4,1.8
						c-0.6,0.6-1,1.3-1.3,2c-0.3,0.8-0.5,1.6-0.5,2.4s0.1,1.6,0.5,2.4c0.6,1.5,1.8,2.7,3.3,3.3c0.8,0.3,1.6,0.5,2.4,0.5h0.2v-2.2
						h-0.1c-0.5,0-1.1-0.1-1.6-0.3c-0.5-0.2-0.9-0.5-1.3-0.9c-0.4-0.4-0.7-0.8-0.9-1.3c-0.2-0.5-0.3-1-0.3-1.6
						c0-0.5,0.1-1.1,0.3-1.6c0.2-0.5,0.5-0.9,0.9-1.3c0.4-0.4,0.8-0.7,1.3-0.9c1-0.4,2.2-0.4,3.2,0c0.5,0.2,0.9,0.5,1.3,0.9
						c0.4,0.4,0.7,0.8,0.9,1.3s0.3,1,0.3,1.6v6.2h2.1v-6.2c0-0.8-0.2-1.7-0.5-2.4C39.8,18,39.4,17.3,38.8,16.8"/>
					<path id="Path_10_" class="st3" d="M53.1,16.8c-0.6-0.6-1.3-1-2-1.4c-1.6-0.7-3.3-0.7-4.9,0c-0.7,0.3-1.4,0.8-2,1.3
						c-0.6,0.6-1,1.3-1.3,2c-0.3,0.8-0.5,1.6-0.5,2.4V32h2.1V21.2c0-1.1,0.4-2.1,1.2-2.9c0.4-0.4,0.8-0.7,1.3-0.9
						c1-0.4,2.2-0.4,3.2,0c0.5,0.2,0.9,0.5,1.3,0.9c0.4,0.4,0.7,0.8,0.9,1.3s0.3,1.1,0.3,1.6c0,0.6-0.1,1.1-0.3,1.6
						s-0.5,0.9-0.9,1.3c-0.8,0.8-1.8,1.2-2.9,1.2h-0.2v2.1h0.2c0.8,0,1.7-0.1,2.5-0.5c0.7-0.3,1.4-0.8,2-1.3c0.6-0.6,1-1.3,1.3-2
						c0.6-1.6,0.6-3.3,0-4.9C54.1,18.1,53.7,17.4,53.1,16.8"/>
					<path id="Path_9_" class="st3" d="M68.7,18.8c-0.6-1.5-1.8-2.7-3.3-3.4c-0.8-0.3-1.6-0.5-2.5-0.5c-0.8,0-1.7,0.2-2.4,0.5
						s-1.4,0.8-2,1.3c-0.6,0.6-1,1.3-1.3,2c-0.3,0.8-0.5,1.6-0.5,2.4V32h2.1V21.2c0-0.5,0.1-1.1,0.3-1.6s0.5-0.9,0.9-1.3
						s0.8-0.7,1.3-0.9c0.5-0.2,1.1-0.3,1.6-0.3s1.1,0.1,1.6,0.3c0.5,0.2,0.9,0.5,1.3,0.9s0.7,0.8,0.9,1.3c0.4,1,0.4,2.2,0,3.2
						c-0.2,0.5-0.5,0.9-0.9,1.3c-0.8,0.7-1.8,1.2-2.9,1.2h-0.2v2.1H63c0.8,0,1.7-0.2,2.4-0.5c0.7-0.3,1.4-0.8,2-1.3
						c0.6-0.6,1-1.3,1.3-2c0.3-0.8,0.5-1.6,0.5-2.4C69.3,20.3,69.1,19.5,68.7,18.8"/>
					<path id="Path_8_" class="st3" d="M25.9,18.7L25.9,18.7c-0.3-0.7-0.8-1.4-1.3-2c-0.6-0.6-1.3-1-2-1.3c-0.8-0.3-1.6-0.5-2.4-0.5
						c-1.1,0-2.1,0.3-3.1,0.8c-0.8,0.5-1.5,1.1-2.1,1.9c-1.1-1.7-3.1-2.8-5.2-2.8c-0.8,0-1.7,0.2-2.4,0.5s-1.4,0.8-2,1.3
						c-0.6,0.6-1,1.3-1.3,2s-0.5,1.5-0.5,2.2v6.5h2.1v-6.2c0-0.6,0.1-1.1,0.3-1.7c0.2-0.5,0.5-0.9,0.9-1.3s0.8-0.7,1.3-0.9
						c1-0.4,2.2-0.4,3.2,0s1.8,1.2,2.2,2.2c0.2,0.5,0.3,1.1,0.3,1.6v6.3H16V21c0-1.1,0.5-2.2,1.2-2.9c0.4-0.4,0.8-0.7,1.3-0.9
						c0.5-0.2,1-0.3,1.6-0.3s1.1,0.1,1.6,0.3c0.5,0.2,0.9,0.5,1.3,0.9s0.7,0.8,0.9,1.3c0.2,0.5,0.3,1.1,0.3,1.6v6.3h2.1V21
						C26.4,20.3,26.2,19.5,25.9,18.7"/>
					<rect id="Rectangle_1_" x="-64" y="-11" class="st4" width="318" height="96"/>
				</g>
			</g>
		</g>
	</g>
</g>
</svg>
