<?xml version="1.0" encoding="utf-8"?>
<!-- Generator: Adobe Illustrator 25.0.1, SVG Export Plug-In . SVG Version: 6.00 Build 0)  -->
<svg version="1.1" id="Layer_1" xmlns="http://www.w3.org/2000/svg" xmlns:xlink="http://www.w3.org/1999/xlink" x="0px" y="0px"
	 viewBox="0 0 145.2 51.5" style="enable-background:new 0 0 145.2 51.5;" xml:space="preserve">
<style type="text/css">
	.st0{fill:none;}
</style>
<desc>Created with Sketch.</desc>
<g id="Page-1_1_">
	<g id="empower_x5B_2_x5D__1_" transform="translate(-1.021369, -3.000000)">
		<path id="Path_11_" d="M77.3,17.5c-1.1-1-2.3-1.9-3.7-2.4c-1.4-0.6-2.9-0.9-4.4-0.9c-3,0-5.9,1.2-8.1,3.3c-1,1.1-1.9,2.3-2.5,3.7
			c-0.6,1.4-0.9,2.9-0.9,4.4c0,1.5,0.3,3,0.9,4.4c1.2,2.7,3.4,4.9,6.1,6.1c1.4,0.6,2.9,0.9,4.4,0.9h0.3V33h-0.3c-1,0-2-0.2-2.9-0.6
			c-0.9-0.4-1.7-0.9-2.4-1.6c-0.7-0.7-1.2-1.5-1.6-2.4c-0.4-0.9-0.6-1.9-0.6-2.9c0-1,0.2-2,0.6-2.9c0.4-0.9,0.9-1.7,1.6-2.4
			c0.7-0.7,1.5-1.2,2.4-1.6c1.9-0.8,4-0.8,5.8,0c0.9,0.4,1.7,0.9,2.4,1.6c0.7,0.7,1.2,1.5,1.6,2.4c0.4,0.9,0.6,1.9,0.6,2.9V37h3.9
			V25.5c0-1.5-0.3-3.1-0.9-4.5C79.2,19.7,78.4,18.5,77.3,17.5"/>
		<path id="Path_10_" d="M103.6,17.5c-1.1-1.1-2.3-1.9-3.7-2.5c-2.9-1.2-6.1-1.2-8.9,0c-1.4,0.6-2.6,1.4-3.7,2.5
			c-1,1.1-1.9,2.3-2.4,3.7c-0.6,1.4-0.9,2.9-0.9,4.4v19.8h3.9V25.6c0-2,0.8-3.9,2.2-5.3c0.7-0.7,1.5-1.2,2.4-1.6
			c1.9-0.8,4-0.8,5.9,0c0.9,0.4,1.7,0.9,2.4,1.6c0.7,0.7,1.2,1.5,1.6,2.4c0.4,0.9,0.6,1.9,0.6,2.9c0,1-0.2,2-0.6,3
			c-0.4,0.9-0.9,1.7-1.6,2.4c-1.4,1.4-3.3,2.2-5.3,2.2H95v3.9h0.3c1.5,0,3.1-0.3,4.5-0.9c1.4-0.6,2.6-1.4,3.7-2.4
			c1-1.1,1.9-2.3,2.4-3.7c1.2-2.9,1.2-6.1,0-8.9C105.3,19.8,104.5,18.6,103.6,17.5"/>
		<path id="Path_9_" d="M132.1,21.1c-1.1-2.7-3.3-4.9-6-6.1c-1.4-0.6-2.9-0.9-4.5-0.9c-1.5,0-3.1,0.3-4.5,0.9
			c-1.4,0.6-2.6,1.4-3.7,2.5c-1.1,1-1.9,2.3-2.5,3.7c-0.6,1.4-0.9,2.9-0.9,4.4v20h3.9v-20c0-1,0.2-2,0.6-2.9
			c0.4-0.9,0.9-1.7,1.6-2.4c0.7-0.7,1.5-1.2,2.4-1.6c0.9-0.4,2-0.6,3-0.6c1,0,2,0.2,2.9,0.6c0.9,0.4,1.7,0.9,2.4,1.6
			c0.7,0.7,1.2,1.5,1.6,2.4c0.8,1.9,0.8,4,0,5.9c-0.4,0.9-0.9,1.7-1.6,2.4c-1.4,1.4-3.3,2.1-5.2,2.1h-0.3v3.9h0.3
			c1.5,0,3.1-0.3,4.5-0.9c1.4-0.6,2.6-1.4,3.7-2.4c1-1.1,1.9-2.3,2.4-3.7c0.6-1.4,0.9-2.9,0.9-4.5c0-1.5-0.3-3-0.9-4.4"/>
		<path id="Path_8_" d="M53.7,21L53.7,21c-0.6-1.4-1.4-2.6-2.5-3.7c-1.1-1-2.3-1.9-3.7-2.5c-1.4-0.6-2.9-0.9-4.5-0.9
			c-2,0-3.9,0.5-5.6,1.5c-1.5,0.9-2.8,2.1-3.8,3.5c-2.1-3.2-5.7-5.1-9.5-5.1c-1.5,0-3,0.3-4.5,0.9c-1.4,0.6-2.6,1.4-3.7,2.4
			c-1,1.1-1.9,2.3-2.5,3.7c-0.6,1.3-0.9,2.7-0.9,4.1v11.9h3.9V25.4c0-1,0.2-2.1,0.6-3c0.4-0.9,0.9-1.7,1.6-2.4
			c0.7-0.7,1.5-1.2,2.4-1.6c1.9-0.8,4-0.8,5.9,0c1.8,0.8,3.2,2.2,4,4c0.4,0.9,0.6,2,0.6,3v11.5h3.8V25.4c0-2,0.8-3.9,2.3-5.4
			c0.7-0.7,1.5-1.2,2.4-1.6c0.9-0.4,1.9-0.6,2.9-0.6c1,0,2,0.2,3,0.6c0.9,0.4,1.7,0.9,2.4,1.6c0.7,0.7,1.2,1.5,1.6,2.4
			c0.4,0.9,0.6,2,0.6,3v11.5h3.9V25.4C54.6,23.9,54.3,22.4,53.7,21"/>
		<rect id="Rectangle_1_" x="-111.2" y="-33.5" class="st0" width="582.9" height="176"/>
	</g>
</g>
</svg>
