<svg id="icon-edit" xmlns="http://www.w3.org/2000/svg" width="24" height="24" viewBox="0 0 24 24">
  <path id="Path_11411" data-name="Path 11411" d="M667.378,114.074a.5.5,0,0,1-.354-.146l-4.954-4.955a.5.5,0,0,1,0-.708l2.128-2.119a.5.5,0,0,1,.707,0l4.947,4.948a.5.5,0,0,1,0,.708l-2.122,2.125A.5.5,0,0,1,667.378,114.074Zm-4.245-5.454,4.245,4.246,1.414-1.417-4.241-4.241Z" transform="translate(-646 -106)" fill="#3c5583"/>
  <path id="Path_11412" data-name="Path 11412" d="M666.311,114.637l-4.944-4.95a.5.5,0,0,0-.707,0l-14.16,14.15a.5.5,0,0,0-.146.321L646,129.466a.5.5,0,0,0,.02.133.453.453,0,0,0,.011.074.492.492,0,0,0,.111.174l0,.005h0a.488.488,0,0,0,.129.087c.012.006.021.017.033.022a.506.506,0,0,0,.192.038h.033l5.309-.354a.5.5,0,0,0,.32-.145l14.149-14.155A.5.5,0,0,0,666.311,114.637Zm-19.264,14.319.054-.639.589.59Zm4.54-.3-2.559.17-1.858-1.858.171-2.559,13.673-13.664,4.236,4.243Z" transform="translate(-646 -106)" fill="#3c5583"/>
</svg>
