<svg xmlns="http://www.w3.org/2000/svg" width="24" height="24" viewBox="0 0 24 24"><defs><style>.a{fill:#4e6080;}</style></defs><g transform="translate(-179 -111)"><path class="a" d="M191,135a12,12,0,1,1,12-12A12.013,12.013,0,0,1,191,135Zm0-23a11,11,0,1,0,11,11A11.013,11.013,0,0,0,191,112Z"/><path class="a" d="M191.647,116.9a3.139,3.139,0,0,0-3.782,3.077.48.48,0,0,0,.96,0,2.163,2.163,0,1,1,3.6,1.636,5.481,5.481,0,0,0-1.91,4.123v.95a.48.48,0,1,0,.96,0h0v-.95a4.518,4.518,0,0,1,1.579-3.4,3.137,3.137,0,0,0-1.406-5.438Zm-.642,10.906a.481.481,0,0,0-.48.48v.389a.48.48,0,0,0,.96,0v-.389A.481.481,0,0,0,191.005,127.806Z"/></g></svg>