<svg xmlns="http://www.w3.org/2000/svg" width="24" height="24" viewBox="0 0 24 24"><defs><style>.a{fill:#65569a;}</style></defs><g transform="translate(400 200)"><path class="a" d="M-388-198a10.011,10.011,0,0,1,10,10,10.011,10.011,0,0,1-10,10,10.011,10.011,0,0,1-10-10,10.011,10.011,0,0,1,10-10m0-2a12,12,0,0,0-12,12,12,12,0,0,0,12,12,12,12,0,0,0,12-12,12,12,0,0,0-12-12Z"/><rect class="a" width="3.136" height="11.496" transform="translate(-389.568 -191.496)"/><path class="a" d="M-386.719-193.331a1.8,1.8,0,0,1-1.281.406q-1.707,0-1.707-1.543T-388-196q1.707,0,1.707,1.532A1.5,1.5,0,0,1-386.719-193.331Z"/></g></svg>