<svg xmlns="http://www.w3.org/2000/svg" width="24" height="24" viewBox="0 0 24 24"><defs><style>.a{fill:#4e6080;}</style></defs><g transform="translate(-333.5 -29.5)"><path class="a" d="M345.5,53.5a12,12,0,1,1,12-12A12.013,12.013,0,0,1,345.5,53.5Zm0-23a11,11,0,1,0,11,11A11.013,11.013,0,0,0,345.5,30.5Z"/><path class="a" d="M347.437,40.978a4,4,0,1,0-3.874,0C340.912,42.329,339.5,46.217,339.5,48v.5h12V48C351.5,46.217,350.088,42.329,347.437,40.978ZM342.5,37.5a3,3,0,1,1,3,3A3,3,0,0,1,342.5,37.5Zm-1.967,10c.265-2.153,2.1-6,4.967-6s4.7,3.847,4.967,6Z"/></g></svg>