<svg id="icon-statistics" xmlns="http://www.w3.org/2000/svg" width="24" height="24" viewBox="0 0 24 24">
  <path id="Path_11408" data-name="Path 11408" d="M2.5,24A2.5,2.5,0,0,1,0,21.5v-9a2.5,2.5,0,0,1,5,0v9A2.5,2.5,0,0,1,2.5,24Zm0-13A1.5,1.5,0,0,0,1,12.5v9a1.5,1.5,0,0,0,3,0v-9A1.5,1.5,0,0,0,2.5,11Z" fill="#3c5583"/>
  <path id="Path_11409" data-name="Path 11409" d="M12,24a2.563,2.563,0,0,1-2.5-2.618V7.618A2.563,2.563,0,0,1,12,5a2.563,2.563,0,0,1,2.5,2.618V21.382A2.563,2.563,0,0,1,12,24ZM12,6a1.564,1.564,0,0,0-1.5,1.618V21.382A1.564,1.564,0,0,0,12,23a1.564,1.564,0,0,0,1.5-1.618V7.618A1.564,1.564,0,0,0,12,6Z" fill="#3c5583"/>
  <path id="Path_11410" data-name="Path 11410" d="M21.5,24A2.369,2.369,0,0,1,19,21.8V2.2A2.369,2.369,0,0,1,21.5,0,2.369,2.369,0,0,1,24,2.2V21.8A2.369,2.369,0,0,1,21.5,24Zm0-23A1.378,1.378,0,0,0,20,2.2V21.8A1.378,1.378,0,0,0,21.5,23,1.378,1.378,0,0,0,23,21.8V2.2A1.378,1.378,0,0,0,21.5,1Z" fill="#3c5583"/>
</svg>
