<svg xmlns="http://www.w3.org/2000/svg" width="24" height="24" viewBox="0 0 24 24"><defs><style>.a{fill:#f0a61b;}</style></defs><path class="a" d="M47,2A10,10,0,1,1,37,12,10.011,10.011,0,0,1,47,2m0-2A12,12,0,1,0,59,12,12,12,0,0,0,47,0Z" transform="translate(-35)"/><path class="a" d="M48.389,19.508a1.877,1.877,0,0,1-1.378.49,1.937,1.937,0,0,1-1.4-.478,1.789,1.789,0,0,1-.495-1.349,1.8,1.8,0,0,1,.484-1.364,1.972,1.972,0,0,1,1.411-.462,1.905,1.905,0,0,1,1.383.473,1.791,1.791,0,0,1,.49,1.353A1.792,1.792,0,0,1,48.389,19.508Z" transform="translate(-35)"/><path class="a" d="M48.335,14.5H45.708L45.159,4h3.726Z" transform="translate(-35)"/></svg>